<?xml version="1.0" encoding="utf-8"?>
<!-- Generator: Adobe Illustrator 26.0.0, SVG Export Plug-In . SVG Version: 6.00 Build 0)  -->
<svg version="1.1" id="Camada_1" xmlns="http://www.w3.org/2000/svg" xmlns:xlink="http://www.w3.org/1999/xlink" x="0px" y="0px"
	 viewBox="0 0 64 64" style="enable-background:new 0 0 64 64;" xml:space="preserve">
<style type="text/css">
	.st0{fill:#FFFFFF;}
</style>
<path class="st0" d="M31.91,47.98c-0.73,0-1.36-4.88-1.55-7.78c-0.1-1.6,0-1.1,0.09-8.94c0.03-3.03,0.08-9.14,0.08-10.55
	c0-0.06,0-0.39,0.01-0.83c0.01-0.57,0.03-1.15,0.04-1.72c0.02-1.34,0.02-1.63,0.19-1.92c0.49-0.82,1.88-0.81,2.42,0.06
	c0.42,0.69,0.29,1.71,0.24,2.11c-0.01,0.07-0.03,4.51-0.08,13.38c-0.03,4.91,0.31,4.71,0.15,8.25
	C33.34,43.5,32.61,47.99,31.91,47.98z"/>
<path class="st0" d="M46.45,30.91"/>
<path class="st0" d="M46.52,33.42"/>
<path class="st0" d="M37.26,42.31"/>
<path class="st0" d="M31.91,47.98c0.52,0.16,1.39-2.98,4.68-7.14c1.71-2.17,2.63-3.26,4.26-4.27c3.52-2.18,7.37-1.76,7.36-2.27
	c-0.01-0.37-1.93-0.58-2.04-0.59c-0.99-0.11-3.33-0.22-6.24,1.07c-1.22,0.54-4.82,2.2-6.86,6.15C31.39,44.16,31.35,47.8,31.91,47.98
	z"/>
<path class="st0" d="M40.8,43.19"/>
<path class="st0" d="M32.7,42.06"/>
<path class="st0" d="M32.62,44.57"/>
<path class="st0" d="M39.28,44.42"/>
<path class="st0" d="M38.05,47.12"/>
<path class="st0" d="M36.41,21.76"/>
<path class="st0" d="M35.85,47.01"/>
<path class="st0" d="M35.23,46.84"/>
<path class="st0" d="M33.32,48.36"/>
<path d="M55.41,44.95"/>
<path class="st0" d="M31.96,47.98c-0.52,0.15-1.37-2.99-4.61-7.19c-1.69-2.19-2.6-3.29-4.22-4.31c-3.49-2.21-7.35-1.83-7.34-2.34
	c0.01-0.37,1.94-0.56,2.04-0.57c0.99-0.1,3.33-0.19,6.23,1.13c1.21,0.55,4.8,2.25,6.8,6.22C32.52,44.16,32.52,47.81,31.96,47.98z"/>
</svg>
